<?xml version="1.0" standalone="no"?> <!DOCTYPE svg PUBLIC "-//W3C//DTD SVG 1.0//EN" "http://www.w3.org/TR/2001/REC-SVG-20010904/DTD/svg10.dtd" > <svg xmlns="http://www.w3.org/2000/svg" width="100%" height="100%">
<defs >
<font id="din" horiz-adv-x="443" ><font-face
    font-family="DIN"
    units-per-em="1000"
    panose-1="0 0 4 0 0 0 0 0 0 0"
    ascent="985"
    descent="-226"
    alphabetic="0" />
<missing-glyph horiz-adv-x="500" d="M63 0V774H438V0H63ZM125 63H375V712H125V63Z" />
<glyph unicode=" " glyph-name="space" horiz-adv-x="249" />
<glyph unicode="!" glyph-name="exclam" horiz-adv-x="316" d="M215 712L204 200H142L132 712H215ZM216 0H130V84H216V0Z" />
<glyph unicode="&quot;" glyph-name="quotedbl" horiz-adv-x="423" d="M335 542H256V712H335V542ZM167 542H88V712H167V542Z" />
<glyph unicode="#" glyph-name="numbersign" horiz-adv-x="653" d="M602 432H506L483 291H572V227H473L437 0H363L399 227H239L204 0H130L166 227H77V291H177L200 432H108V498H209L243 713H318L283 498H442L476 713H549L515 498H602V432ZM432 432H273L250 291H409L432
432Z" />
<glyph unicode="$" glyph-name="dollar" horiz-adv-x="596" d="M540 196Q540 110 481 57T322 -4V-114H262V-6Q130 0 42 88L94 140Q167 67 266 63V328L246 330Q169 338 115 385T61 517Q61 602 115 656T262 717V806H322V717Q428 712 508 640L459 591Q398 646 319
651V392L350 387Q437 373 479 337Q540 285 540 196ZM266 399V651Q204 646 170 611T136 520Q136 465 168 438Q203 408 266 399ZM464 194Q464 252 429 283Q407 302 377 310Q365 313 319 320V63Q387 68 425 102T464 194Z" />
<glyph unicode="%" glyph-name="percent" horiz-adv-x="833" d="M769 128Q769 67 731 30T634 -7Q575 -7 537 30T499 128V233Q499 294 537 331T634 368Q693 368 731 331T769 233V128ZM614 712L280 0H220L554 712H614ZM335 479Q335 419 297 382T200 345Q141 345
103 382T65 479V584Q65 645 103 682T200 719Q259 719 297 682T335 584V479ZM712 130V231Q712 318 634 318Q556 318 556 231V130Q556 43 634 43Q712 43 712 130ZM278 481V582Q278 669 200 669Q122 669 122 582V481Q122 395 200 395Q278 395 278 481Z" />
<glyph unicode="&amp;" glyph-name="ampersand" horiz-adv-x="739" d="M671 0H576L512 78Q422 -6 302 -6Q199 -6 138 50T77 201Q77 273 125 328Q155 363 231 414Q194 459 179 483Q154 527 154 569Q154 633 198 675T311 718Q378 718 422 675T466 568Q466 495 387
441Q369 429 334 405L516 186Q555 245 556 349H628Q626 208 562 131L671 0ZM395 568Q395 604 371 628T311 653Q275 653 252 630T229 570Q229 531 293 453Q304 460 331 479Q395 523 395 568ZM469 130L273 366Q211 323 189 299Q151 257 151 203Q151 140 193 101T301
61Q392 61 469 130Z" />
<glyph unicode="&apos;" glyph-name="quotesingle" horiz-adv-x="255" d="M167 542H88V712H167V542Z" />
<glyph unicode="(" glyph-name="parenleft" horiz-adv-x="298" d="M234 -45L185 -94Q154 -63 144 -51Q125 -30 113 -8Q92 31 92 95V617Q92 682 113 720Q130 751 185 806L234 757Q208 731 203 726Q189 709 180 692Q164 660 164 611V101Q164 52 180 20Q191 -2 234 -45Z" />
<glyph unicode=")" glyph-name="parenright" horiz-adv-x="298" d="M205 95Q205 29 185 -8Q168 -39 113 -94L62 -43Q92 -13 93 -12Q109 5 117 22Q131 50 131 101V611Q131 662 117 690Q107 710 62 755L113 806Q144 775 154 763Q173 742 185 720Q205 683 205 617V95Z" />
<glyph unicode="*" glyph-name="asterisk" horiz-adv-x="474" d="M407 472L379 423L262 494L266 357H208L212 494L96 423L67 472L187 537L67 603L96 651L212 580L208 717H266L262 580L379 651L407 603L287 537L407 472Z" />
<glyph unicode="+" glyph-name="plus" horiz-adv-x="522" d="M470 234H295V58H228V234H52V301H228V475H295V301H470V234Z" />
<glyph unicode="," glyph-name="comma" horiz-adv-x="264" d="M176 -65L88 -144V88H176V-65Z" />
<glyph unicode="-" glyph-name="hyphen" horiz-adv-x="426" d="M350 236H76V303H350V236Z" />
<glyph unicode="." glyph-name="period" horiz-adv-x="270" d="M182 0H88V94H182V0Z" />
<glyph unicode="/" glyph-name="slash" horiz-adv-x="355" d="M356 786L71 -74H0L285 786H356Z" />
<glyph unicode="0" glyph-name="zero" horiz-adv-x="522" d="M456 190Q456 103 401 49T261 -6Q177 -6 122 48T66 190V522Q66 609 121 663T261 718Q345 718 400 664T456 522V190ZM384 194V518Q384 578 352 616T261 654Q203 654 171 616T138 518V194Q138 134 170
96T261 58Q319 58 351 96T384 194Z" />
<glyph unicode="1" glyph-name="one" horiz-adv-x="522" d="M330 0H258V632L125 515V597L258 712H330V0Z" />
<glyph unicode="2" glyph-name="two" horiz-adv-x="522" d="M461 0H68V64L349 421Q389 472 389 526Q389 584 356 619T265 654Q211 654 178 624Q141 590 141 525H69Q69 610 123 664T265 718Q353 718 407 666T461 526Q461 455 404 382L155 64H461V0Z" />
<glyph unicode="3" glyph-name="three" horiz-adv-x="522" d="M460 194Q460 99 399 44Q342 -7 251 -7Q162 -7 107 39Q46 88 42 181H114Q118 118 159 86Q195 57 251 57Q310 57 349 94T388 195Q388 333 248 333H233V396H248Q375 396 375 525Q375 587 340 621T251
655Q195 655 162 623T123 536H51Q57 621 114 671Q168 719 251 719Q338 719 392 666T447 526Q447 412 351 368Q460 327 460 194Z" />
<glyph unicode="4" glyph-name="four" horiz-adv-x="522" d="M482 113H395V0H324V113H40V178L297 712H374L117 178H324V380H395V178H482V113Z" />
<glyph unicode="5" glyph-name="five" horiz-adv-x="522" d="M462 235Q462 103 405 46Q352 -7 263 -7Q170 -7 120 44Q76 88 70 168H142Q156 57 263 57Q318 57 351 90Q390 129 390 235Q390 408 270 408Q175 408 152 338H87V712H447V648H152V422Q196 471 280 471Q358
471 403 426Q462 367 462 235Z" />
<glyph unicode="6" glyph-name="six" horiz-adv-x="522" d="M460 205Q460 113 406 54T263 -6Q173 -6 119 50T65 199Q65 268 110 359L285 712H359L200 392Q233 407 275 407Q358 407 409 351T460 205ZM388 202Q388 264 356 304Q321 346 262 346Q205 346 171 307T137
202Q137 137 171 98T262 58Q319 58 353 97T388 202Z" />
<glyph unicode="7" glyph-name="seven" horiz-adv-x="522" d="M471 648L224 0H148L395 648H147V536H76V712H471V648Z" />
<glyph unicode="8" glyph-name="eight" horiz-adv-x="522" d="M471 196Q471 107 411 51T261 -6Q171 -6 111 50T51 196Q51 308 158 369Q65 422 65 527Q65 610 120 664T261 718Q346 718 401 664T457 527Q457 422 365 369Q471 309 471 196ZM385 526Q385 582 351 618T261
654Q206 654 172 618T137 526Q137 470 171 435T261 399Q316 399 350 434T385 526ZM399 197Q399 256 360 296T261 336Q202 336 163 296T123 197Q123 138 162 98T261 58Q320 58 359 98T399 197Z" />
<glyph unicode="9" glyph-name="nine" horiz-adv-x="522" d="M457 513Q457 444 412 353L237 0H162L322 320Q289 305 246 305Q164 305 113 361T62 507Q62 599 116 658T259 718Q349 718 403 662T457 513ZM385 510Q385 575 351 614T259 654Q202 654 168 615T134 510Q134
448 167 407T259 366Q316 366 350 405T385 510Z" />
<glyph unicode=":" glyph-name="colon" horiz-adv-x="297" d="M209 301H115V395H209V301ZM209 0H115V94H209V0Z" />
<glyph unicode=";" glyph-name="semicolon" horiz-adv-x="297" d="M209 301H115V395H209V301ZM205 -65L117 -144V88H205V-65Z" />
<glyph unicode="&lt;" glyph-name="less" horiz-adv-x="1027" d="M972 234H183L548 -130H454L55 269L454 668H548L183 304H972V234Z" />
<glyph unicode="=" glyph-name="equal" horiz-adv-x="522" d="M470 320H52V387H470V320ZM470 151H52V217H470V151Z" />
<glyph unicode="&gt;" glyph-name="greater" horiz-adv-x="1027" d="M972 269L573 -130H479L844 234H55V304H844L479 668H573L972 269Z" />
<glyph unicode="?" glyph-name="question" horiz-adv-x="497" d="M451 536Q451 480 406 415L324 297Q306 271 306 239V200H234V240Q234 289 265 334L346 451Q379 499 379 536Q379 587 347 620T264 654Q212 654 180 619T148 535H76Q76 612 130 665T264 718Q344
718 397 667T451 536ZM313 0H227V84H313V0Z" />
<glyph unicode="@" glyph-name="at" horiz-adv-x="713" d="M641 -1L572 0V55Q523 -7 438 -7Q336 -7 288 74Q258 125 258 238Q258 366 299 421Q345 483 437 483Q520 483 571 420V498Q571 572 532 612T421 652H291Q222 652 182 612T142 498V161Q142 114 153 90T199
40L150 -9Q104 25 88 59T72 160V496Q72 600 127 656T282 713H430Q528 713 584 657T641 496V-1ZM571 238Q571 322 550 364Q521 421 450 421Q379 421 350 364Q329 322 329 238Q329 154 350 112Q379 55 450 55Q521 55 550 112Q571 154 571 238Z" />
<glyph unicode="A" glyph-name="A" horiz-adv-x="611" d="M599 0H518L461 161H150L93 0H12L274 712H338L599 0ZM439 227L307 603L173 227H439Z" />
<glyph unicode="B" glyph-name="B" horiz-adv-x="668" d="M592 197Q592 102 535 51T380 0H103V712H371Q465 712 523 661T581 522Q581 467 552 425T476 366Q592 323 592 197ZM505 521Q505 582 467 613T365 644H179V397H365Q427 397 466 428T505 521ZM516 199Q516
259 478 294T373 329H179V68H373Q439 68 477 103T516 199Z" />
<glyph unicode="C" glyph-name="C" horiz-adv-x="637" d="M572 206Q555 107 488 51T325 -6Q217 -6 143 68Q97 114 84 180Q76 225 76 356Q76 487 84 532Q97 598 143 644Q217 718 325 718Q422 718 488 662T572 506H494Q480 572 436 611T325 650Q251 650 202 600Q170
567 160 517Q152 473 152 356Q152 239 160 195Q170 145 202 112Q251 62 325 62Q391 62 436 101T496 206H572Z" />
<glyph unicode="D" glyph-name="D" horiz-adv-x="673" d="M597 364Q597 252 590 206Q576 115 527 66Q461 0 347 0H103V712H347Q461 712 527 646Q576 597 590 514Q597 471 597 364ZM521 364Q521 456 516 492Q507 558 474 592Q424 644 334 644H179V68H334Q424 68
474 120Q506 153 516 228Q521 268 521 364Z" />
<glyph unicode="E" glyph-name="E" horiz-adv-x="600" d="M545 0H103V712H545V644H179V393H491V325H179V68H545V0Z" />
<glyph unicode="F" glyph-name="F" horiz-adv-x="580" d="M545 644H179V382H491V314H179V0H103V712H545V644Z" />
<glyph unicode="G" glyph-name="G" horiz-adv-x="650" d="M576 260Q576 142 515 76Q439 -6 325 -6Q217 -6 143 68Q97 114 84 180Q76 225 76 356Q76 487 84 532Q97 598 143 644Q217 718 325 718Q425 718 493 658Q558 601 574 505H498Q483 573 437 611T325 650Q252
650 202 599Q170 566 160 516Q152 473 152 356Q152 239 160 195Q170 145 202 112Q251 62 325 62Q410 62 460 123Q500 171 500 252V306H325V373H576V260Z" />
<glyph unicode="H" glyph-name="H" horiz-adv-x="696" d="M593 0H517V325H179V0H103V712H179V393H517V712H593V0Z" />
<glyph unicode="I" glyph-name="I" horiz-adv-x="282" d="M179 0H103V712H179V0Z" />
<glyph unicode="J" glyph-name="J" horiz-adv-x="501" d="M408 216Q408 114 347 54T186 -6Q87 -6 23 58L74 109Q121 62 186 62Q256 62 294 104T332 226V712H408V216Z" />
<glyph unicode="K" glyph-name="K" horiz-adv-x="650" d="M636 0H546L329 379L179 199V0H103V712H179V303L511 712H604L380 437L636 0Z" />
<glyph unicode="L" glyph-name="L" horiz-adv-x="573" d="M543 0H103V712H179V68H543V0Z" />
<glyph unicode="M" glyph-name="M" horiz-adv-x="816" d="M713 0H637V541L442 112H377L179 541V0H103V712H179L411 207L637 712H713V0Z" />
<glyph unicode="N" glyph-name="N" horiz-adv-x="732" d="M629 0H557L179 571V0H103V712H175L553 143V712H629V0Z" />
<glyph unicode="O" glyph-name="O" horiz-adv-x="650" d="M574 356Q574 225 566 180Q553 114 507 68Q433 -6 325 -6Q217 -6 143 68Q97 114 84 180Q76 225 76 356Q76 487 84 532Q97 598 143 644Q217 718 325 718Q433 718 507 644Q553 598 566 532Q574 487 574 356ZM498
356Q498 473 490 516Q480 566 448 599Q398 650 325 650Q252 650 202 599Q170 566 160 516Q152 473 152 356Q152 239 160 196Q170 146 202 113Q252 62 325 62Q398 62 448 113Q480 146 490 196Q498 239 498 356Z" />
<glyph unicode="P" glyph-name="P" horiz-adv-x="630" d="M588 503Q588 408 527 351T368 293H179V0H103V712H368Q466 712 527 655T588 503ZM512 503Q512 572 471 608T361 644H179V361H361Q430 361 471 397T512 503Z" />
<glyph unicode="Q" glyph-name="Q" horiz-adv-x="649" d="M603 11L557 -35L478 44Q413 -6 325 -6Q217 -6 143 68Q97 114 84 180Q76 225 76 356Q76 487 84 532Q97 598 143 644Q217 718 325 718Q433 718 507 644Q553 598 566 532Q574 487 574 356Q574 237 568 194Q559
131 525 89L603 11ZM498 356Q498 473 490 516Q480 566 448 599Q398 650 325 650Q252 650 202 599Q170 566 160 516Q152 473 152 356Q152 239 160 196Q170 146 202 113Q252 62 325 62Q381 62 426 96L336 186L382 232L469 145Q487 175 493 224Q498 263 498 356Z"
/>
<glyph unicode="R" glyph-name="R" horiz-adv-x="656" d="M601 0H512L350 316H179V0H103V712H376Q470 712 528 659T587 514Q587 438 545 388T432 323L601 0ZM511 513Q511 576 472 610T369 644H179V383H369Q434 383 472 416T511 513Z" />
<glyph unicode="S" glyph-name="S" horiz-adv-x="588" d="M532 196Q532 103 465 49T286 -6Q136 -6 42 88L94 140Q172 62 288 62Q366 62 411 97T456 194Q456 253 422 283Q395 307 329 317L246 330Q61 359 61 517Q61 608 122 663T289 718Q414 718 501 640L452 591Q385
652 286 652Q216 652 176 616T136 520Q136 466 169 438T264 399L342 387Q429 374 472 337Q532 286 532 196Z" />
<glyph unicode="T" glyph-name="T" horiz-adv-x="548" d="M518 644H312V0H236V644H30V712H518V644Z" />
<glyph unicode="U" glyph-name="U" horiz-adv-x="683" d="M590 235Q590 129 520 62T341 -6Q233 -6 163 61T93 235V712H169V241Q169 160 216 111T341 62Q419 62 466 111T514 241V712H590V235Z" />
<glyph unicode="V" glyph-name="V" horiz-adv-x="546" d="M538 712L304 0H242L8 712H88L273 136L458 712H538Z" />
<glyph unicode="W" glyph-name="W" horiz-adv-x="854" d="M838 712L656 0H585L427 570L269 0H198L16 712H97L236 138L393 712H461L618 138L757 712H838Z" />
<glyph unicode="X" glyph-name="X" horiz-adv-x="551" d="M536 0H448L275 299L101 0H15L233 365L29 712H117L275 431L433 712H521L316 365L536 0Z" />
<glyph unicode="Y" glyph-name="Y" horiz-adv-x="514" d="M506 712L296 294V0H220V294L8 712H90L258 371L424 712H506Z" />
<glyph unicode="Z" glyph-name="Z" horiz-adv-x="556" d="M499 0H57V72L413 644H71V712H499V648L140 68H499V0Z" />
<glyph unicode="[" glyph-name="bracketleft" horiz-adv-x="313" d="M269 -74H92V786H269V722H164V-10H269V-74Z" />
<glyph unicode="\" glyph-name="backslash" horiz-adv-x="355" d="M355 -74H284L0 783H71L355 -74Z" />
<glyph unicode="]" glyph-name="bracketright" horiz-adv-x="313" d="M221 -74H44V-12H152V724H44V786H221V-74Z" />
<glyph unicode="^" glyph-name="asciicircum" horiz-adv-x="537" d="M465 413H391L269 641L146 413H72L236 718H302L465 413Z" />
<glyph unicode="_" glyph-name="underscore" horiz-adv-x="537" d="M537 -165H0V-114H537V-165Z" />
<glyph unicode="`" glyph-name="grave" horiz-adv-x="500" d="M299 594H233L125 747H211L299 594Z" />
<glyph unicode="a" glyph-name="a" horiz-adv-x="526" d="M441 0H369V47Q316 -6 227 -6Q132 -6 88 39Q51 77 51 139Q51 205 95 243T221 281H369V328Q369 436 243 436Q159 436 119 380L70 425Q102 466 144 483Q182 498 244 498Q441 498 441 334V0ZM369 174V227H231Q121
227 121 140Q121 56 234 56Q310 56 344 89Q369 113 369 174Z" />
<glyph unicode="b" glyph-name="b" horiz-adv-x="545" d="M481 246Q481 97 421 37Q378 -6 301 -6Q212 -6 162 59V0H90V712H162V435Q211 498 301 498Q378 498 421 455Q481 395 481 246ZM409 246Q409 333 388 376Q359 434 286 434Q213 434 184 376Q162 333 162 246Q162
159 184 116Q213 58 286 58Q359 58 388 116Q409 159 409 246Z" />
<glyph unicode="c" glyph-name="c" horiz-adv-x="490" d="M443 67Q405 26 369 10T281 -6Q184 -6 126 57Q63 124 63 246Q63 368 126 435Q184 498 281 498Q333 498 369 482T443 425L394 379Q344 434 281 434Q207 434 167 378Q135 333 135 246Q135 159 167 114Q207
58 281 58Q343 58 394 114L443 67Z" />
<glyph unicode="d" glyph-name="d" horiz-adv-x="545" d="M455 0H384V59Q334 -6 244 -6Q167 -6 124 37Q64 97 64 246Q64 395 124 455Q167 498 244 498Q334 498 383 435V712H455V0ZM383 246Q383 333 362 376Q333 434 260 434Q187 434 158 376Q136 333 136 246Q136
159 158 116Q187 58 260 58Q333 58 362 116Q383 159 383 246Z" />
<glyph unicode="e" glyph-name="e" horiz-adv-x="530" d="M467 227H135Q135 146 172 102T280 57Q353 57 409 113L458 70Q418 30 381 13Q338 -6 278 -6Q177 -6 122 55Q63 119 63 246Q63 365 117 431T265 498Q360 498 413 434T467 260V227ZM395 281Q392 333 380
363Q349 437 265 437Q181 437 150 363Q138 333 135 281H395Z" />
<glyph unicode="f" glyph-name="f" horiz-adv-x="314" d="M283 434H178V0H106V434H43V489H106V582Q106 640 137 675Q171 714 231 714H283V652H244Q178 652 178 580V489H283V434Z" />
<glyph unicode="g" glyph-name="g" horiz-adv-x="543" d="M453 -15Q453 -108 398 -167T248 -226Q194 -226 158 -211T81 -160L128 -114Q158 -141 179 -151Q206 -163 246 -163Q314 -163 349 -119Q381 -79 381 -12V65Q331 1 243 1Q168 1 124 45Q64 105 64 250Q64
395 124 455Q167 498 244 498Q333 498 382 434V492H453V-15ZM381 250Q381 334 360 377Q332 434 259 434Q186 434 157 377Q136 334 136 250Q136 166 157 124Q186 66 259 66Q332 66 360 124Q381 166 381 250Z" />
<glyph unicode="h" glyph-name="h" horiz-adv-x="562" d="M477 0H405V304Q405 434 285 434Q228 434 195 401T162 304V0H90V712H162V438Q215 498 300 498Q383 498 430 449T477 316V0Z" />
<glyph unicode="i" glyph-name="i" horiz-adv-x="253" d="M167 632H86V713H167V632ZM162 0H90V492H162V0Z" />
<glyph unicode="j" glyph-name="j" horiz-adv-x="253" d="M167 632H86V713H167V632ZM162 -89Q162 -148 132 -183Q99 -221 37 -221H-15V-158H24Q90 -158 90 -86V489H162V-89Z" />
<glyph unicode="k" glyph-name="k" horiz-adv-x="536" d="M503 0H414L258 252L162 142V0H90V712H162V236L384 492H474L307 304L503 0Z" />
<glyph unicode="l" glyph-name="l" horiz-adv-x="297" d="M265 0H213Q151 0 120 36T88 131V712H160V134Q160 62 226 62H265V0Z" />
<glyph unicode="m" glyph-name="m" horiz-adv-x="879" d="M794 0H722V303Q722 434 601 434Q546 434 512 401T478 311V0H406V303Q406 434 285 434Q228 434 195 400T162 303V0H90V492H162V438Q215 498 301 498Q406 498 452 416Q510 498 614 498Q694 498 741 452Q794
401 794 315V0Z" />
<glyph unicode="n" glyph-name="n" horiz-adv-x="562" d="M477 0H405V303Q405 434 284 434Q227 434 195 400T162 303V0H90V492H162V438Q215 498 300 498Q379 498 426 452Q477 402 477 315V0Z" />
<glyph unicode="o" glyph-name="o" horiz-adv-x="530" d="M466 246Q466 111 406 50Q351 -6 265 -6Q179 -6 124 50Q64 111 64 246Q64 381 124 442Q179 498 265 498Q351 498 406 442Q466 381 466 246ZM394 246Q394 359 355 398Q319 434 265 434Q212 434 176 398Q136
358 136 246Q136 134 176 94Q212 58 265 58Q319 58 356 95T394 246Z" />
<glyph unicode="p" glyph-name="p" horiz-adv-x="545" d="M481 246Q481 97 421 37Q378 -6 301 -6Q212 -6 162 58V-220H90V492H162V434Q211 498 301 498Q378 498 421 455Q481 395 481 246ZM409 246Q409 333 388 376Q359 434 286 434Q213 434 184 376Q162 333 162
246Q162 159 184 116Q213 58 286 58Q359 58 388 116Q409 159 409 246Z" />
<glyph unicode="q" glyph-name="q" horiz-adv-x="545" d="M455 -220H383V58Q333 -6 244 -6Q167 -6 124 37Q64 97 64 246Q64 395 124 455Q167 498 244 498Q335 498 384 434V492H455V-220ZM383 246Q383 333 362 376Q333 434 260 434Q187 434 158 376Q136 333 136
246Q136 159 158 116Q187 58 260 58Q333 58 362 116Q383 159 383 246Z" />
<glyph unicode="r" glyph-name="r" horiz-adv-x="421" d="M418 452L365 398Q329 434 280 434Q227 434 195 397T162 302V0H90V492H162V432Q205 498 300 498Q372 498 418 452Z" />
<glyph unicode="s" glyph-name="s" horiz-adv-x="496" d="M445 144Q445 74 391 34T245 -6Q117 -6 43 65L91 113Q145 56 244 56Q375 56 375 143Q375 208 293 215L212 222Q65 235 65 354Q65 420 115 459T246 498Q358 498 423 445L376 398Q325 437 245 437Q135 437
135 356Q135 292 221 284L300 277Q445 264 445 144Z" />
<glyph unicode="t" glyph-name="t" horiz-adv-x="332" d="M279 0H228Q167 0 134 39Q102 74 102 132V434H40V489H102V643H174V489H279V434H174V134Q174 62 241 62H279V0Z" />
<glyph unicode="u" glyph-name="u" horiz-adv-x="562" d="M472 0H401V55Q348 -6 262 -6Q182 -6 135 40Q85 89 85 178V492H157V189Q157 58 277 58Q334 58 367 92T400 189V492H472V0Z" />
<glyph unicode="v" glyph-name="v" horiz-adv-x="447" d="M436 492L255 0H191L11 492H89L223 97L358 492H436Z" />
<glyph unicode="w" glyph-name="w" horiz-adv-x="724" d="M713 492L558 0H491L362 382L234 0H167L11 492H89L202 97L331 492H393L523 97L635 492H713Z" />
<glyph unicode="x" glyph-name="x" horiz-adv-x="478" d="M445 0H358L240 191L120 0H33L200 251L40 492H127L240 310L351 492H438L278 251L445 0Z" />
<glyph unicode="y" glyph-name="y" horiz-adv-x="447" d="M436 492L212 -119Q198 -157 177 -177Q141 -211 81 -211H50V-147H72Q108 -147 124 -134T153 -86L188 10L11 492H89L224 97L358 492H436Z" />
<glyph unicode="z" glyph-name="z" horiz-adv-x="459" d="M407 0H50V62L324 428H65V492H407V431L132 64H407V0Z" />
<glyph unicode="{" glyph-name="braceleft" horiz-adv-x="354" d="M305 -74H268Q197 -74 167 -44T137 55V246Q137 288 119 306T74 324H48V388H74Q101 388 119 406T137 466V657Q137 726 167 756T268 786H305V722H282Q225 722 215 696Q209 681 209 644V456Q209 386
146 356Q209 326 209 256V68Q209 12 228 -1Q241 -10 282 -10H305V-74Z" />
<glyph unicode="|" glyph-name="bar" horiz-adv-x="326" d="M199 -74H127V786H199V-74Z" />
<glyph unicode="}" glyph-name="braceright" horiz-adv-x="354" d="M305 324H280Q253 324 235 306T217 246V55Q217 -14 187 -44T86 -74H48V-10H72Q117 -10 131 4T145 68V256Q145 326 208 356Q145 386 145 456V644Q145 699 125 713Q112 722 72 722H48V786H86Q157
786 187 756T217 657V466Q217 424 235 406T280 388H305V324Z" />
<glyph unicode="~" glyph-name="asciitilde" horiz-adv-x="539" d="M490 278Q449 237 423 224T361 210Q323 210 255 241Q202 265 177 265Q138 265 93 220L49 265Q90 306 118 320Q143 333 178 333Q215 333 283 302Q336 278 361 278Q400 278 445 323L490 278Z" />
</font>
</defs>
</svg>
